<svg width="200" height="100" viewBox="0 0 200 100" fill="none" xmlns="http://www.w3.org/2000/svg">
<rect width="200" height="100" rx="50" fill="black"/>
<line x1="136.5" y1="13" x2="136.5" y2="87" stroke="white"/>
<path d="M42.9688 66L51.6562 38.1875H55.4688L54.7188 43.7188L45.875 72H42.1562L42.9688 66ZM37.125 38.1875L44.5312 66.3125L45.0625 72H41.1562L31.3438 38.1875H37.125ZM63.7812 66.0938L70.8438 38.1875H76.5938L66.7812 72H62.9062L63.7812 66.0938ZM56.3125 38.1875L64.8125 65.5312L65.7812 72H62.0938L53 43.6562L52.25 38.1875H56.3125ZM88.3125 43.5V72H82.5312V38.1875H88.1562L88.3125 43.5ZM98.875 38L98.8438 43.375C98.3646 43.2708 97.9062 43.2083 97.4688 43.1875C97.0521 43.1458 96.5729 43.125 96.0312 43.125C94.6979 43.125 93.5208 43.3333 92.5 43.75C91.4792 44.1667 90.6146 44.75 89.9062 45.5C89.1979 46.25 88.6354 47.1458 88.2188 48.1875C87.8229 49.2083 87.5625 50.3333 87.4375 51.5625L85.8125 52.5C85.8125 50.4583 86.0104 48.5417 86.4062 46.75C86.8229 44.9583 87.4583 43.375 88.3125 42C89.1667 40.6042 90.25 39.5208 91.5625 38.75C92.8958 37.9583 94.4792 37.5625 96.3125 37.5625C96.7292 37.5625 97.2083 37.6146 97.75 37.7188C98.2917 37.8021 98.6667 37.8958 98.875 38ZM110.5 38.1875V72H104.688V38.1875H110.5ZM104.25 29.2188C104.25 28.2812 104.531 27.4896 105.094 26.8438C105.677 26.1979 106.531 25.875 107.656 25.875C108.76 25.875 109.604 26.1979 110.188 26.8438C110.792 27.4896 111.094 28.2812 111.094 29.2188C111.094 30.1146 110.792 30.8854 110.188 31.5312C109.604 32.1562 108.76 32.4688 107.656 32.4688C106.531 32.4688 105.677 32.1562 105.094 31.5312C104.531 30.8854 104.25 30.1146 104.25 29.2188ZM133.938 38.1875V42.625H115.656V38.1875H133.938ZM121.844 29.9688H127.625V63.625C127.625 64.7708 127.802 65.6354 128.156 66.2188C128.51 66.8021 128.969 67.1875 129.531 67.375C130.094 67.5625 130.698 67.6562 131.344 67.6562C131.823 67.6562 132.323 67.6146 132.844 67.5312C133.385 67.4271 133.792 67.3438 134.062 67.2812L134.094 72C133.635 72.1458 133.031 72.2812 132.281 72.4062C131.552 72.5521 130.667 72.625 129.625 72.625C128.208 72.625 126.906 72.3438 125.719 71.7812C124.531 71.2188 123.583 70.2812 122.875 68.9688C122.188 67.6354 121.844 65.8438 121.844 63.5938V29.9688Z" fill="white"/>
<path d="M154.75 72.625C152.396 72.625 150.26 72.2292 148.344 71.4375C146.448 70.625 144.812 69.4896 143.438 68.0312C142.083 66.5729 141.042 64.8438 140.312 62.8438C139.583 60.8438 139.219 58.6562 139.219 56.2812V54.9688C139.219 52.2188 139.625 49.7708 140.438 47.625C141.25 45.4583 142.354 43.625 143.75 42.125C145.146 40.625 146.729 39.4896 148.5 38.7188C150.271 37.9479 152.104 37.5625 154 37.5625C156.417 37.5625 158.5 37.9792 160.25 38.8125C162.021 39.6458 163.469 40.8125 164.594 42.3125C165.719 43.7917 166.552 45.5417 167.094 47.5625C167.635 49.5625 167.906 51.75 167.906 54.125V56.7188H142.656V52H162.125V51.5625C162.042 50.0625 161.729 48.6042 161.188 47.1875C160.667 45.7708 159.833 44.6042 158.688 43.6875C157.542 42.7708 155.979 42.3125 154 42.3125C152.688 42.3125 151.479 42.5938 150.375 43.1562C149.271 43.6979 148.323 44.5104 147.531 45.5938C146.74 46.6771 146.125 48 145.688 49.5625C145.25 51.125 145.031 52.9271 145.031 54.9688V56.2812C145.031 57.8854 145.25 59.3958 145.688 60.8125C146.146 62.2083 146.802 63.4375 147.656 64.5C148.531 65.5625 149.583 66.3958 150.812 67C152.062 67.6042 153.479 67.9062 155.062 67.9062C157.104 67.9062 158.833 67.4896 160.25 66.6562C161.667 65.8229 162.906 64.7083 163.969 63.3125L167.469 66.0938C166.74 67.1979 165.812 68.25 164.688 69.25C163.562 70.25 162.177 71.0625 160.531 71.6875C158.906 72.3125 156.979 72.625 154.75 72.625Z" fill="#808080"/>
</svg>
